PathFileType	4	(X/Y/Z)	s03c0101.trc
DataRate	CameraRate	NumFrames	NumMarkers	Units	OrigDataRate	OrigDataStartFrame	OrigNumFrames
200	200	5	52	mm	200	1500	2000
Frame#	Time	racr			lacr			c7			jug			rlel			rdr			llel			ldr			s2			lic			ric			lasi			rasi			rpsi			lpsi			rgt			lgt			rth1			rth2			rth3			rth4			rlfc			rmfc			rsh1			rsh2			rsh3			rsh4			rlmal			rmmal			rcal			rtoe			rmt5			rmt1			lth1			lth2			lth4			lth3			llfc			lmfc			lsh1			lsh2			lsh3			lsh4			llmal			lmmal			lcal			ltoe			lmt1			lmt5			SBIKE			LBIKE			RBIKE			
		X1	Y1	Z1	X2	Y2	Z2	X3	Y3	Z3	X4	Y4	Z4	X5	Y5	Z5	X6	Y6	Z6	X7	Y7	Z7	X8	Y8	Z8	X9	Y9	Z9	X10	Y10	Z10	X11	Y11	Z11	X12	Y12	Z12	X13	Y13	Z13	X14	Y14	Z14	X15	Y15	Z15	X16	Y16	Z16	X17	Y17	Z17	X18	Y18	Z18	X19	Y19	Z19	X20	Y20	Z20	X21	Y21	Z21	X22	Y22	Z22	X23	Y23	Z23	X24	Y24	Z24	X25	Y25	Z25	X26	Y26	Z26	X27	Y27	Z27	X28	Y28	Z28	X29	Y29	Z29	X30	Y30	Z30	X31	Y31	Z31	X32	Y32	Z32	X33	Y33	Z33	X34	Y34	Z34	X35	Y35	Z35	X36	Y36	Z36	X37	Y37	Z37	X38	Y38	Z38	X39	Y39	Z39	X40	Y40	Z40	X41	Y41	Z41	X42	Y42	Z42	X43	Y43	Z43	X44	Y44	Z44	X45	Y45	Z45	X46	Y46	Z46	X47	Y47	Z47	X48	Y48	Z48	X49	Y49	Z49	X50	Y50	Z50	X51	Y51	Z51	X52	Y52	Z52	
1500	7.5000	474.592143	1406.792978	-99.377023	455.315449	1407.060233	-421.540552	394.796737	1501.709519	-261.032444	429.803355	1335.056197	-253.662768	532.202888	1146.124349	-13.856941	736.466428	938.520741	-61.189659	541.344553	1151.590333	-468.892446	744.457508	925.383192	-421.266112	-103.835638	1189.122284	-241.713399	70.519161	1211.370307	-425.766362	63.203822	1229.746552	-58.963106	90.249676	1140.301044	-383.527749	90.066701	1162.257487	-101.281074	-80.504742	1242.333267	-199.478459	-73.858545	1238.636246	-281.320249	15.511036	1137.985513	-40.561975	18.712747	1102.619161	-437.880422	135.090920	1042.218296	-11.872772	223.492019	1033.068312	-6.932036	294.852033	984.173134	-6.106285	236.640919	1065.153663	-21.125727	410.698805	911.199235	-26.285932	425.956124	900.687108	-148.996908	365.836373	748.822987	-13.236051	359.951538	661.909186	-34.068404	310.513559	589.193713	-41.202292	388.743711	656.845491	-59.390664	263.608871	467.371503	-68.149203	288.220868	483.525720	-154.291372	201.080281	419.056742	-110.744333	511.264977	428.335188	-116.444101	394.799346	404.762040	-44.402160	417.215245	423.467542	-158.537153	109.626299	979.324398	-470.406501	181.060107	931.434492	-481.167109	209.199193	955.043385	-475.350962	221.086895	851.346938	-479.855019	312.311881	754.695700	-472.903678	326.278537	745.721077	-346.753703	201.457156	621.214613	-476.836385	174.062171	544.484257	-452.145199	105.299344	487.023987	-435.826744	202.679886	529.501431	-429.580099	25.809168	396.167691	-402.855989	69.810453	396.247153	-318.810504	-48.004608	388.644266	-350.648213	214.318985	225.181756	-355.211350	132.718238	270.068902	-313.237537	98.020039	266.493805	-427.436990	-214.626872	945.080479	-233.133717	-8.887496	80.737637	-433.414099	-9.208488	80.709257	-33.043479	
1501	7.5050	474.578860	1406.692458	-99.285904	455.405150	1407.091780	-421.500516	394.786092	1501.717533	-260.955974	429.887325	1335.129351	-253.625379	532.169221	1146.065167	-13.853998	736.507783	938.505337	-61.168032	541.359250	1151.578786	-468.869343	744.475771	925.368140	-421.246499	-103.878477	1189.185044	-241.645436	70.464834	1211.348450	-425.750669	63.264128	1229.652882	-58.952342	90.134437	1140.194554	-383.467874	90.149495	1162.059869	-101.295692	-80.556971	1242.426156	-199.314823	-73.872018	1238.685827	-281.268140	15.554399	1137.713469	-40.538715	18.638278	1102.711291	-437.934195	135.021715	1041.529983	-11.900090	223.424159	1032.175342	-6.984857	294.608344	983.096022	-6.241119	236.675695	1064.188860	-21.136757	410.228139	909.955674	-26.429892	425.359828	899.454819	-149.151739	365.356598	747.572491	-13.335826	360.195194	660.786252	-33.510332	310.306811	587.841701	-41.254690	388.867742	655.907075	-59.094633	263.714853	465.933491	-68.358085	288.169609	482.140829	-154.304233	201.222915	417.588376	-110.532285	511.438199	427.610224	-116.463053	394.796555	403.647909	-44.249356	417.425144	422.389770	-158.526717	109.632333	979.497439	-470.603051	181.118838	932.074909	-481.984709	209.200704	955.365415	-475.218102	221.335412	851.737871	-480.068471	312.736575	755.248231	-473.260094	326.620423	746.325498	-347.026567	201.792982	621.864819	-477.091612	174.235584	545.227879	-452.256318	105.373101	487.898689	-435.969789	202.823537	530.245252	-429.606717	25.716345	397.214961	-402.909676	69.832374	397.159705	-318.902982	-48.139348	389.827690	-350.662844	215.064388	228.725051	-359.933944	132.575802	270.912419	-312.314773	97.693291	267.490780	-427.433384	-214.628073	945.087228	-233.145521	-8.889705	80.745760	-433.424697	-9.207212	80.701487	-33.046002	
1502	7.5100	474.559207	1406.665423	-99.227830	455.497123	1407.132547	-421.468262	394.781348	1501.726152	-260.896645	429.989107	1335.201144	-253.573905	532.121795	1146.005902	-13.829287	736.530854	938.506834	-61.180223	541.380344	1151.585616	-468.853583	744.481953	925.366930	-421.220427	-103.909267	1189.239263	-241.560486	70.418054	1211.344669	-425.750262	63.385871	1229.567114	-58.929474	90.043832	1140.109963	-383.500336	90.240240	1161.876895	-101.393184	-80.552311	1242.458506	-199.232370	-73.893991	1238.718883	-281.189301	15.629828	1137.443815	-40.522332	18.542318	1102.830299	-437.984930	134.960120	1040.856267	-11.950708	223.285280	1031.239092	-6.948118	294.416078	981.998324	-6.345526	236.647421	1063.280344	-21.113144	409.725585	908.649702	-26.627706	424.803603	898.153871	-149.190655	364.877656	746.366635	-13.407745	359.239245	659.375618	-34.158662	310.211996	586.459326	-41.368481	388.106600	654.418315	-59.422432	263.746039	464.492721	-68.375041	288.193280	480.752419	-154.322337	201.335199	416.097799	-110.327497	511.612197	426.943208	-116.441585	395.277197	402.599255	-44.398659	417.569198	421.472999	-158.500927	109.662900	979.739238	-470.704770	181.210608	932.422852	-482.184640	209.254788	955.761917	-475.396681	221.570045	852.140188	-480.310648	313.080111	755.785971	-473.495825	326.972234	746.860248	-347.237546	202.138734	622.543286	-477.321909	174.490732	546.007813	-452.515818	105.514153	488.695579	-436.115803	203.014748	531.027201	-429.767559	25.635937	398.278028	-403.001847	69.644245	398.340539	-318.925359	-48.244486	391.102484	-350.706315	213.641454	226.810740	-355.285180	132.141711	271.960012	-313.274956	97.403879	268.437134	-427.432830	-214.635812	945.074740	-233.166958	-8.882523	80.750841	-433.410340	-9.202546	80.704873	-33.043095	
1503	7.5150	474.553364	1406.632540	-99.168296	455.570501	1407.157451	-421.418704	394.772649	1501.728343	-260.848154	430.072731	1335.260297	-253.531495	531.755354	1145.993210	-13.565627	736.560052	938.480742	-61.159584	541.380293	1151.558037	-468.852401	744.527611	925.366414	-421.232388	-103.974759	1189.295954	-241.438580	70.310221	1211.352814	-425.721893	63.505328	1229.465842	-58.923330	89.931797	1140.012147	-383.521893	90.296489	1161.733271	-101.451831	-80.612946	1242.546298	-199.015309	-73.927621	1238.749090	-281.083130	15.688558	1137.164840	-40.446070	18.405948	1102.963584	-438.036372	134.858927	1040.175575	-11.970943	223.217552	1030.293488	-6.987402	294.222802	980.918923	-6.492786	236.619285	1062.371015	-21.116838	409.203648	907.440503	-26.854022	424.123002	896.899619	-149.377071	364.325899	745.189215	-13.570901	358.850923	658.168708	-34.208164	309.922042	585.143009	-41.446830	387.764332	653.225348	-59.435335	263.749860	463.038678	-68.400147	288.143444	479.415697	-154.345779	201.543214	414.467392	-110.237755	511.731413	426.301077	-116.356690	395.196360	401.533436	-44.229128	417.741228	420.448151	-158.481316	109.669545	979.971237	-470.844051	181.301121	932.808276	-482.424878	209.283562	956.198028	-475.567547	221.794731	852.678135	-480.559623	313.538909	756.495834	-473.879174	327.373000	747.612092	-347.589524	202.436790	623.171707	-477.568202	174.713324	546.735708	-452.698182	105.625011	489.546672	-436.277755	203.190630	531.733392	-429.913615	25.638157	399.307749	-403.076319	69.792399	399.301367	-319.005822	-48.258036	392.235711	-350.707935	213.245137	227.452779	-355.228280	132.067694	272.725359	-312.444622	97.135793	269.412737	-427.442901	-214.644341	945.075518	-233.160759	-8.893114	80.741050	-433.408604	-9.207955	80.706298	-33.042227	
1504	7.5200	474.544160	1406.602525	-99.133387	455.646659	1407.194695	-421.384037	394.728557	1501.726339	-260.756319	430.142096	1335.314437	-253.523026	531.729739	1145.920366	-13.544886	736.589537	938.454515	-61.140706	541.419318	1151.557624	-468.825871	744.530446	925.359947	-421.199162	-103.628191	1189.276013	-240.638323	70.241292	1211.347595	-425.734286	63.657338	1229.353572	-58.902103	89.854171	1139.953996	-383.593838	90.382723	1161.555583	-101.544213	-80.613678	1242.552983	-198.887686	-73.954071	1238.777262	-280.971462	15.743737	1136.863413	-40.401446	18.268092	1103.129811	-438.073729	134.771917	1039.479331	-11.997836	223.095250	1029.464694	-7.011673	293.973234	979.854668	-6.638810	236.578235	1061.418787	-21.078205	408.723316	906.184916	-27.064014	423.494168	895.706727	-149.511480	363.752518	743.968607	-13.689743	358.442603	656.894537	-34.282345	309.660269	583.869721	-41.509021	387.407763	651.998502	-59.522827	263.723962	461.621026	-68.464350	288.086451	477.987992	-154.403602	202.156529	412.252163	-110.631035	511.829670	425.642324	-116.377288	395.379207	400.601314	-44.223994	417.884294	419.565206	-158.453845	109.654103	980.270384	-471.014921	181.375389	933.268633	-482.634806	209.315781	956.690638	-475.757301	222.026550	853.145046	-480.848550	313.920192	757.165685	-474.201385	327.796062	748.240707	-347.908399	202.767206	623.853777	-477.822909	174.887357	547.456587	-452.773187	105.743582	490.454983	-436.403035	203.325207	532.383577	-429.990690	25.649814	400.366463	-403.138221	69.595475	400.367393	-319.003605	-48.293580	393.506343	-350.781679	212.903510	228.182219	-355.266153	133.376052	275.781247	-315.782702	96.875981	270.312872	-427.485517	-214.665540	945.071094	-233.156531	-8.880792	80.743330	-433.418054	-9.196769	80.706366	-33.040219	
